<svg width="80" height="60" viewBox="0 0 80 60" xmlns="http://www.w3.org/2000/svg">
  <defs>
    <linearGradient id="grad" x1="0%" y1="0%" x2="100%" y2="100%">
      <stop offset="0%" style="stop-color:#FF4D00;stop-opacity:1" />
      <stop offset="100%" style="stop-color:#FF8A00;stop-opacity:1" />
    </linearGradient>
    <filter id="glow" x="-20%" y="-20%" width="140%" height="140%">
      <feGaussianBlur stdDeviation="2" result="blur" />
      <feComposite in="SourceGraphic" in2="blur" operator="over" />
    </filter>
  </defs>
  <!-- Main Bubble shape optimized -->
  <path d="M5 30 C5 16.2 16.2 5 30 5 C43.8 5 55 16.2 55 30 C55 43.8 43.8 55 30 55 C24.5 55 19.5 53.2 15.5 50.2 L5 55 L10 44.5 C7 40.5 5 35.5 5 30 Z" 
        fill="url(#grad)" filter="url(#glow)" />
  <!-- Play button with slightly rounded corners -->
  <path d="M25 21 L42 30.5 L25 40 Q23 41 23 39 L23 22 Q23 20 25 21 Z" fill="white" />
</svg>